<?xml version="1.0" encoding="utf-8"?>
<!-- Generator: Adobe Illustrator 20.1.0, SVG Export Plug-In . SVG Version: 6.00 Build 0)  -->
<svg version="1.1" id="Camada_1" xmlns="http://www.w3.org/2000/svg" xmlns:xlink="http://www.w3.org/1999/xlink" x="0px" y="0px"
	 viewBox="0 0 37.5 31.2" style="enable-background:new 0 0 37.5 31.2;" xml:space="preserve">
<path id="Twitter_4_" fill="#ffffff" class="st0" d="M36.4,0.6c-1.5,0.9-3.1,1.6-4.9,1.9C30.1,1,28.1,0,25.9,0c-4.2,0-7.7,3.5-7.7,7.9
	c0,0.6,0.1,1.2,0.2,1.8c-6.4-0.3-12-3.5-15.8-8.2c-0.7,1.2-1,2.5-1,4c0,2.7,1.4,5.1,3.4,6.6c-1.3,0-2.4-0.4-3.5-1v0.1
	c0,3.8,2.6,7,6.2,7.7c-0.6,0.2-1.3,0.3-2,0.3c-0.5,0-1,0-1.4-0.1c1,3.1,3.8,5.4,7.2,5.5c-2.6,2.1-5.9,3.4-9.5,3.4
	c-0.6,0-1.2,0-1.8-0.1c3.4,2.2,7.4,3.5,11.8,3.5c14.1,0,21.9-12,21.9-22.4c0-0.3,0-0.7,0-1c1.5-1.1,2.8-2.5,3.8-4.1
	c-1.4,0.6-2.9,1.1-4.4,1.2C34.6,4,35.8,2.4,36.4,0.6z"/>
</svg>
